<mxfile host="65bd71144e">
    <diagram id="_f_FOb7tHgsK-3vcWgPJ" name="Page-1">
        <mxGraphModel dx="1633" dy="546" grid="0" gridSize="10" guides="1" tooltips="1" connect="1" arrows="1" fold="1" page="0" pageScale="1" pageWidth="827" pageHeight="1169" math="0" shadow="0">
            <root>
                <mxCell id="0"/>
                <mxCell id="1" parent="0"/>
                <mxCell id="PXzRkRZeHH5ZsVeOtlPI-5" value="Product" style="swimlane;fontStyle=0;childLayout=stackLayout;horizontal=1;startSize=26;fillColor=none;horizontalStack=0;resizeParent=1;resizeParentMax=0;resizeLast=0;collapsible=1;marginBottom=0;" parent="1" vertex="1">
                    <mxGeometry y="431" width="140" height="208" as="geometry">
                        <mxRectangle x="478" y="212" width="95" height="26" as="alternateBounds"/>
                    </mxGeometry>
                </mxCell>
                <mxCell id="PXzRkRZeHH5ZsVeOtlPI-6" value="id" style="text;strokeColor=none;fillColor=none;align=left;verticalAlign=top;spacingLeft=4;spacingRight=4;overflow=hidden;rotatable=0;points=[[0,0.5],[1,0.5]];portConstraint=eastwest;" parent="PXzRkRZeHH5ZsVeOtlPI-5" vertex="1">
                    <mxGeometry y="26" width="140" height="26" as="geometry"/>
                </mxCell>
                <mxCell id="PXzRkRZeHH5ZsVeOtlPI-10" value="price" style="text;strokeColor=none;fillColor=none;align=left;verticalAlign=top;spacingLeft=4;spacingRight=4;overflow=hidden;rotatable=0;points=[[0,0.5],[1,0.5]];portConstraint=eastwest;" parent="PXzRkRZeHH5ZsVeOtlPI-5" vertex="1">
                    <mxGeometry y="52" width="140" height="26" as="geometry"/>
                </mxCell>
                <mxCell id="PXzRkRZeHH5ZsVeOtlPI-11" value="name" style="text;strokeColor=none;fillColor=none;align=left;verticalAlign=top;spacingLeft=4;spacingRight=4;overflow=hidden;rotatable=0;points=[[0,0.5],[1,0.5]];portConstraint=eastwest;" parent="PXzRkRZeHH5ZsVeOtlPI-5" vertex="1">
                    <mxGeometry y="78" width="140" height="26" as="geometry"/>
                </mxCell>
                <mxCell id="PXzRkRZeHH5ZsVeOtlPI-12" value="category" style="text;strokeColor=none;fillColor=none;align=left;verticalAlign=top;spacingLeft=4;spacingRight=4;overflow=hidden;rotatable=0;points=[[0,0.5],[1,0.5]];portConstraint=eastwest;" parent="PXzRkRZeHH5ZsVeOtlPI-5" vertex="1">
                    <mxGeometry y="104" width="140" height="26" as="geometry"/>
                </mxCell>
                <mxCell id="PXzRkRZeHH5ZsVeOtlPI-41" value="quantityInStock" style="text;strokeColor=none;fillColor=none;align=left;verticalAlign=top;spacingLeft=4;spacingRight=4;overflow=hidden;rotatable=0;points=[[0,0.5],[1,0.5]];portConstraint=eastwest;" parent="PXzRkRZeHH5ZsVeOtlPI-5" vertex="1">
                    <mxGeometry y="130" width="140" height="26" as="geometry"/>
                </mxCell>
                <mxCell id="PXzRkRZeHH5ZsVeOtlPI-44" value="country" style="text;strokeColor=none;fillColor=none;align=left;verticalAlign=top;spacingLeft=4;spacingRight=4;overflow=hidden;rotatable=0;points=[[0,0.5],[1,0.5]];portConstraint=eastwest;" parent="PXzRkRZeHH5ZsVeOtlPI-5" vertex="1">
                    <mxGeometry y="156" width="140" height="26" as="geometry"/>
                </mxCell>
                <mxCell id="PXzRkRZeHH5ZsVeOtlPI-79" value="supplier" style="text;strokeColor=none;fillColor=none;align=left;verticalAlign=top;spacingLeft=4;spacingRight=4;overflow=hidden;rotatable=0;points=[[0,0.5],[1,0.5]];portConstraint=eastwest;" parent="PXzRkRZeHH5ZsVeOtlPI-5" vertex="1">
                    <mxGeometry y="182" width="140" height="26" as="geometry"/>
                </mxCell>
                <mxCell id="PXzRkRZeHH5ZsVeOtlPI-75" style="edgeStyle=orthogonalEdgeStyle;rounded=0;orthogonalLoop=1;jettySize=auto;html=1;startArrow=none;startFill=0;endArrow=none;endFill=0;startSize=16;endSize=6;" parent="1" source="PXzRkRZeHH5ZsVeOtlPI-18" target="PXzRkRZeHH5ZsVeOtlPI-48" edge="1">
                    <mxGeometry relative="1" as="geometry"/>
                </mxCell>
                <mxCell id="PXzRkRZeHH5ZsVeOtlPI-76" value="makes" style="edgeLabel;html=1;align=center;verticalAlign=middle;resizable=0;points=[];" parent="PXzRkRZeHH5ZsVeOtlPI-75" vertex="1" connectable="0">
                    <mxGeometry x="-0.2591" y="1" relative="1" as="geometry">
                        <mxPoint x="-1" y="11" as="offset"/>
                    </mxGeometry>
                </mxCell>
                <mxCell id="PXzRkRZeHH5ZsVeOtlPI-77" value="1" style="edgeLabel;html=1;align=center;verticalAlign=middle;resizable=0;points=[];" parent="PXzRkRZeHH5ZsVeOtlPI-75" vertex="1" connectable="0">
                    <mxGeometry x="-0.7136" relative="1" as="geometry">
                        <mxPoint x="-8" y="-4" as="offset"/>
                    </mxGeometry>
                </mxCell>
                <mxCell id="PXzRkRZeHH5ZsVeOtlPI-78" value="0..*" style="edgeLabel;html=1;align=center;verticalAlign=middle;resizable=0;points=[];" parent="PXzRkRZeHH5ZsVeOtlPI-75" vertex="1" connectable="0">
                    <mxGeometry x="0.6682" y="2" relative="1" as="geometry">
                        <mxPoint x="11" y="3" as="offset"/>
                    </mxGeometry>
                </mxCell>
                <mxCell id="PXzRkRZeHH5ZsVeOtlPI-18" value="Customer" style="swimlane;fontStyle=0;childLayout=stackLayout;horizontal=1;startSize=26;fillColor=none;horizontalStack=0;resizeParent=1;resizeParentMax=0;resizeLast=0;collapsible=1;marginBottom=0;" parent="1" vertex="1">
                    <mxGeometry x="-478.5" y="174" width="140" height="182" as="geometry">
                        <mxRectangle x="478" y="212" width="95" height="26" as="alternateBounds"/>
                    </mxGeometry>
                </mxCell>
                <mxCell id="PXzRkRZeHH5ZsVeOtlPI-19" value="id" style="text;strokeColor=none;fillColor=none;align=left;verticalAlign=top;spacingLeft=4;spacingRight=4;overflow=hidden;rotatable=0;points=[[0,0.5],[1,0.5]];portConstraint=eastwest;" parent="PXzRkRZeHH5ZsVeOtlPI-18" vertex="1">
                    <mxGeometry y="26" width="140" height="26" as="geometry"/>
                </mxCell>
                <mxCell id="PXzRkRZeHH5ZsVeOtlPI-20" value="username" style="text;strokeColor=none;fillColor=none;align=left;verticalAlign=top;spacingLeft=4;spacingRight=4;overflow=hidden;rotatable=0;points=[[0,0.5],[1,0.5]];portConstraint=eastwest;" parent="PXzRkRZeHH5ZsVeOtlPI-18" vertex="1">
                    <mxGeometry y="52" width="140" height="26" as="geometry"/>
                </mxCell>
                <mxCell id="PXzRkRZeHH5ZsVeOtlPI-21" value="email" style="text;strokeColor=none;fillColor=none;align=left;verticalAlign=top;spacingLeft=4;spacingRight=4;overflow=hidden;rotatable=0;points=[[0,0.5],[1,0.5]];portConstraint=eastwest;" parent="PXzRkRZeHH5ZsVeOtlPI-18" vertex="1">
                    <mxGeometry y="78" width="140" height="26" as="geometry"/>
                </mxCell>
                <mxCell id="PXzRkRZeHH5ZsVeOtlPI-22" value="location" style="text;strokeColor=none;fillColor=none;align=left;verticalAlign=top;spacingLeft=4;spacingRight=4;overflow=hidden;rotatable=0;points=[[0,0.5],[1,0.5]];portConstraint=eastwest;" parent="PXzRkRZeHH5ZsVeOtlPI-18" vertex="1">
                    <mxGeometry y="104" width="140" height="26" as="geometry"/>
                </mxCell>
                <mxCell id="PXzRkRZeHH5ZsVeOtlPI-46" value="points" style="text;strokeColor=none;fillColor=none;align=left;verticalAlign=top;spacingLeft=4;spacingRight=4;overflow=hidden;rotatable=0;points=[[0,0.5],[1,0.5]];portConstraint=eastwest;" parent="PXzRkRZeHH5ZsVeOtlPI-18" vertex="1">
                    <mxGeometry y="130" width="140" height="26" as="geometry"/>
                </mxCell>
                <mxCell id="PXzRkRZeHH5ZsVeOtlPI-70" value="preferences" style="text;strokeColor=none;fillColor=none;align=left;verticalAlign=top;spacingLeft=4;spacingRight=4;overflow=hidden;rotatable=0;points=[[0,0.5],[1,0.5]];portConstraint=eastwest;" parent="PXzRkRZeHH5ZsVeOtlPI-18" vertex="1">
                    <mxGeometry y="156" width="140" height="26" as="geometry"/>
                </mxCell>
                <mxCell id="PXzRkRZeHH5ZsVeOtlPI-29" value="Offer" style="swimlane;fontStyle=0;childLayout=stackLayout;horizontal=1;startSize=26;fillColor=none;horizontalStack=0;resizeParent=1;resizeParentMax=0;resizeLast=0;collapsible=1;marginBottom=0;" parent="1" vertex="1">
                    <mxGeometry x="-291" y="444" width="140" height="182" as="geometry">
                        <mxRectangle x="478" y="212" width="95" height="26" as="alternateBounds"/>
                    </mxGeometry>
                </mxCell>
                <mxCell id="PXzRkRZeHH5ZsVeOtlPI-30" value="id" style="text;strokeColor=none;fillColor=none;align=left;verticalAlign=top;spacingLeft=4;spacingRight=4;overflow=hidden;rotatable=0;points=[[0,0.5],[1,0.5]];portConstraint=eastwest;" parent="PXzRkRZeHH5ZsVeOtlPI-29" vertex="1">
                    <mxGeometry y="26" width="140" height="26" as="geometry"/>
                </mxCell>
                <mxCell id="PXzRkRZeHH5ZsVeOtlPI-31" value="name" style="text;strokeColor=none;fillColor=none;align=left;verticalAlign=top;spacingLeft=4;spacingRight=4;overflow=hidden;rotatable=0;points=[[0,0.5],[1,0.5]];portConstraint=eastwest;" parent="PXzRkRZeHH5ZsVeOtlPI-29" vertex="1">
                    <mxGeometry y="52" width="140" height="26" as="geometry"/>
                </mxCell>
                <mxCell id="PXzRkRZeHH5ZsVeOtlPI-47" value="datetimeLimit" style="text;strokeColor=none;fillColor=none;align=left;verticalAlign=top;spacingLeft=4;spacingRight=4;overflow=hidden;rotatable=0;points=[[0,0.5],[1,0.5]];portConstraint=eastwest;" parent="PXzRkRZeHH5ZsVeOtlPI-29" vertex="1">
                    <mxGeometry y="78" width="140" height="26" as="geometry"/>
                </mxCell>
                <mxCell id="PXzRkRZeHH5ZsVeOtlPI-32" value="discountPercentage" style="text;strokeColor=none;fillColor=none;align=left;verticalAlign=top;spacingLeft=4;spacingRight=4;overflow=hidden;rotatable=0;points=[[0,0.5],[1,0.5]];portConstraint=eastwest;" parent="PXzRkRZeHH5ZsVeOtlPI-29" vertex="1">
                    <mxGeometry y="104" width="140" height="26" as="geometry"/>
                </mxCell>
                <mxCell id="PXzRkRZeHH5ZsVeOtlPI-34" value="productsIncluded" style="text;strokeColor=none;fillColor=none;align=left;verticalAlign=top;spacingLeft=4;spacingRight=4;overflow=hidden;rotatable=0;points=[[0,0.5],[1,0.5]];portConstraint=eastwest;" parent="PXzRkRZeHH5ZsVeOtlPI-29" vertex="1">
                    <mxGeometry y="130" width="140" height="26" as="geometry"/>
                </mxCell>
                <mxCell id="PXzRkRZeHH5ZsVeOtlPI-42" value="country" style="text;strokeColor=none;fillColor=none;align=left;verticalAlign=top;spacingLeft=4;spacingRight=4;overflow=hidden;rotatable=0;points=[[0,0.5],[1,0.5]];portConstraint=eastwest;" parent="PXzRkRZeHH5ZsVeOtlPI-29" vertex="1">
                    <mxGeometry y="156" width="140" height="26" as="geometry"/>
                </mxCell>
                <mxCell id="PXzRkRZeHH5ZsVeOtlPI-35" value="Cart" style="swimlane;fontStyle=0;childLayout=stackLayout;horizontal=1;startSize=26;fillColor=none;horizontalStack=0;resizeParent=1;resizeParentMax=0;resizeLast=0;collapsible=1;marginBottom=0;" parent="1" vertex="1">
                    <mxGeometry y="226" width="140" height="78" as="geometry">
                        <mxRectangle x="478" y="212" width="95" height="26" as="alternateBounds"/>
                    </mxGeometry>
                </mxCell>
                <mxCell id="PXzRkRZeHH5ZsVeOtlPI-45" value="customerId" style="text;strokeColor=none;fillColor=none;align=left;verticalAlign=top;spacingLeft=4;spacingRight=4;overflow=hidden;rotatable=0;points=[[0,0.5],[1,0.5]];portConstraint=eastwest;" parent="PXzRkRZeHH5ZsVeOtlPI-35" vertex="1">
                    <mxGeometry y="26" width="140" height="26" as="geometry"/>
                </mxCell>
                <mxCell id="PXzRkRZeHH5ZsVeOtlPI-39" value="products" style="text;strokeColor=none;fillColor=none;align=left;verticalAlign=top;spacingLeft=4;spacingRight=4;overflow=hidden;rotatable=0;points=[[0,0.5],[1,0.5]];portConstraint=eastwest;" parent="PXzRkRZeHH5ZsVeOtlPI-35" vertex="1">
                    <mxGeometry y="52" width="140" height="26" as="geometry"/>
                </mxCell>
                <mxCell id="PXzRkRZeHH5ZsVeOtlPI-48" value="Payment" style="swimlane;fontStyle=0;childLayout=stackLayout;horizontal=1;startSize=26;fillColor=none;horizontalStack=0;resizeParent=1;resizeParentMax=0;resizeLast=0;collapsible=1;marginBottom=0;" parent="1" vertex="1">
                    <mxGeometry x="-478.5" y="444" width="140" height="130" as="geometry">
                        <mxRectangle x="478" y="212" width="95" height="26" as="alternateBounds"/>
                    </mxGeometry>
                </mxCell>
                <mxCell id="PXzRkRZeHH5ZsVeOtlPI-49" value="id" style="text;strokeColor=none;fillColor=none;align=left;verticalAlign=top;spacingLeft=4;spacingRight=4;overflow=hidden;rotatable=0;points=[[0,0.5],[1,0.5]];portConstraint=eastwest;" parent="PXzRkRZeHH5ZsVeOtlPI-48" vertex="1">
                    <mxGeometry y="26" width="140" height="26" as="geometry"/>
                </mxCell>
                <mxCell id="PXzRkRZeHH5ZsVeOtlPI-50" value="customerId" style="text;strokeColor=none;fillColor=none;align=left;verticalAlign=top;spacingLeft=4;spacingRight=4;overflow=hidden;rotatable=0;points=[[0,0.5],[1,0.5]];portConstraint=eastwest;" parent="PXzRkRZeHH5ZsVeOtlPI-48" vertex="1">
                    <mxGeometry y="52" width="140" height="26" as="geometry"/>
                </mxCell>
                <mxCell id="PXzRkRZeHH5ZsVeOtlPI-51" value="datetime" style="text;strokeColor=none;fillColor=none;align=left;verticalAlign=top;spacingLeft=4;spacingRight=4;overflow=hidden;rotatable=0;points=[[0,0.5],[1,0.5]];portConstraint=eastwest;" parent="PXzRkRZeHH5ZsVeOtlPI-48" vertex="1">
                    <mxGeometry y="78" width="140" height="26" as="geometry"/>
                </mxCell>
                <mxCell id="PXzRkRZeHH5ZsVeOtlPI-52" value="amount" style="text;strokeColor=none;fillColor=none;align=left;verticalAlign=top;spacingLeft=4;spacingRight=4;overflow=hidden;rotatable=0;points=[[0,0.5],[1,0.5]];portConstraint=eastwest;" parent="PXzRkRZeHH5ZsVeOtlPI-48" vertex="1">
                    <mxGeometry y="104" width="140" height="26" as="geometry"/>
                </mxCell>
                <mxCell id="PXzRkRZeHH5ZsVeOtlPI-57" style="edgeStyle=none;rounded=0;orthogonalLoop=1;jettySize=auto;html=1;startArrow=diamondThin;startFill=1;endSize=6;startSize=16;endArrow=none;endFill=0;" parent="1" source="PXzRkRZeHH5ZsVeOtlPI-18" target="PXzRkRZeHH5ZsVeOtlPI-35" edge="1">
                    <mxGeometry relative="1" as="geometry">
                        <mxPoint x="246" y="225" as="sourcePoint"/>
                        <mxPoint x="246" y="355" as="targetPoint"/>
                    </mxGeometry>
                </mxCell>
                <mxCell id="PXzRkRZeHH5ZsVeOtlPI-58" value="1" style="edgeLabel;html=1;align=center;verticalAlign=middle;resizable=0;points=[];" parent="PXzRkRZeHH5ZsVeOtlPI-57" vertex="1" connectable="0">
                    <mxGeometry x="0.7617" relative="1" as="geometry">
                        <mxPoint x="27" y="13" as="offset"/>
                    </mxGeometry>
                </mxCell>
                <mxCell id="PXzRkRZeHH5ZsVeOtlPI-59" value="1" style="edgeLabel;html=1;align=center;verticalAlign=middle;resizable=0;points=[];" parent="PXzRkRZeHH5ZsVeOtlPI-57" vertex="1" connectable="0">
                    <mxGeometry x="-0.2097" y="1" relative="1" as="geometry">
                        <mxPoint x="-110" y="-11" as="offset"/>
                    </mxGeometry>
                </mxCell>
                <mxCell id="PXzRkRZeHH5ZsVeOtlPI-60" value="manages" style="edgeLabel;html=1;align=center;verticalAlign=middle;resizable=0;points=[];" parent="PXzRkRZeHH5ZsVeOtlPI-57" vertex="1" connectable="0">
                    <mxGeometry x="0.1421" relative="1" as="geometry">
                        <mxPoint x="-4" y="-13" as="offset"/>
                    </mxGeometry>
                </mxCell>
                <mxCell id="PXzRkRZeHH5ZsVeOtlPI-62" style="edgeStyle=none;rounded=0;orthogonalLoop=1;jettySize=auto;html=1;startArrow=diamondThin;startFill=0;endSize=6;startSize=16;endArrow=none;endFill=0;" parent="1" source="PXzRkRZeHH5ZsVeOtlPI-35" target="PXzRkRZeHH5ZsVeOtlPI-5" edge="1">
                    <mxGeometry relative="1" as="geometry">
                        <mxPoint x="288" y="277" as="sourcePoint"/>
                        <mxPoint x="150" y="277" as="targetPoint"/>
                    </mxGeometry>
                </mxCell>
                <mxCell id="PXzRkRZeHH5ZsVeOtlPI-63" value="0..*" style="edgeLabel;html=1;align=center;verticalAlign=middle;resizable=0;points=[];" parent="PXzRkRZeHH5ZsVeOtlPI-62" vertex="1" connectable="0">
                    <mxGeometry x="0.7617" relative="1" as="geometry">
                        <mxPoint x="11" y="5" as="offset"/>
                    </mxGeometry>
                </mxCell>
                <mxCell id="PXzRkRZeHH5ZsVeOtlPI-64" value="0..*" style="edgeLabel;html=1;align=center;verticalAlign=middle;resizable=0;points=[];" parent="PXzRkRZeHH5ZsVeOtlPI-62" vertex="1" connectable="0">
                    <mxGeometry x="-0.2097" y="1" relative="1" as="geometry">
                        <mxPoint x="-15" y="-27" as="offset"/>
                    </mxGeometry>
                </mxCell>
                <mxCell id="PXzRkRZeHH5ZsVeOtlPI-65" value="consists of" style="edgeLabel;html=1;align=center;verticalAlign=middle;resizable=0;points=[];" parent="PXzRkRZeHH5ZsVeOtlPI-62" vertex="1" connectable="0">
                    <mxGeometry x="0.1421" relative="1" as="geometry">
                        <mxPoint x="1" y="1" as="offset"/>
                    </mxGeometry>
                </mxCell>
                <mxCell id="PXzRkRZeHH5ZsVeOtlPI-66" style="rounded=0;orthogonalLoop=1;jettySize=auto;html=1;startArrow=diamondThin;startFill=0;endSize=6;startSize=16;endArrow=none;endFill=0;" parent="1" source="PXzRkRZeHH5ZsVeOtlPI-29" target="PXzRkRZeHH5ZsVeOtlPI-5" edge="1">
                    <mxGeometry relative="1" as="geometry">
                        <mxPoint x="80" y="329" as="sourcePoint"/>
                        <mxPoint x="80" y="434" as="targetPoint"/>
                    </mxGeometry>
                </mxCell>
                <mxCell id="PXzRkRZeHH5ZsVeOtlPI-67" value="1..*" style="edgeLabel;html=1;align=center;verticalAlign=middle;resizable=0;points=[];" parent="PXzRkRZeHH5ZsVeOtlPI-66" vertex="1" connectable="0">
                    <mxGeometry x="0.7617" relative="1" as="geometry">
                        <mxPoint x="6" y="11" as="offset"/>
                    </mxGeometry>
                </mxCell>
                <mxCell id="PXzRkRZeHH5ZsVeOtlPI-68" value="0..*" style="edgeLabel;html=1;align=center;verticalAlign=middle;resizable=0;points=[];" parent="PXzRkRZeHH5ZsVeOtlPI-66" vertex="1" connectable="0">
                    <mxGeometry x="-0.2097" y="1" relative="1" as="geometry">
                        <mxPoint x="-35" y="-10" as="offset"/>
                    </mxGeometry>
                </mxCell>
                <mxCell id="PXzRkRZeHH5ZsVeOtlPI-69" value="includes" style="edgeLabel;html=1;align=center;verticalAlign=middle;resizable=0;points=[];" parent="PXzRkRZeHH5ZsVeOtlPI-66" vertex="1" connectable="0">
                    <mxGeometry x="0.1421" relative="1" as="geometry">
                        <mxPoint x="-7" y="11" as="offset"/>
                    </mxGeometry>
                </mxCell>
                <mxCell id="11" style="edgeStyle=none;html=1;endArrow=none;endFill=0;startArrow=diamondThin;startFill=1;startSize=16;" edge="1" parent="1" source="2" target="PXzRkRZeHH5ZsVeOtlPI-48">
                    <mxGeometry relative="1" as="geometry"/>
                </mxCell>
                <mxCell id="12" value="1" style="edgeLabel;html=1;align=center;verticalAlign=middle;resizable=0;points=[];" vertex="1" connectable="0" parent="11">
                    <mxGeometry x="-0.5358" relative="1" as="geometry">
                        <mxPoint x="-8" y="-11" as="offset"/>
                    </mxGeometry>
                </mxCell>
                <mxCell id="13" value="0..1" style="edgeLabel;html=1;align=center;verticalAlign=middle;resizable=0;points=[];" vertex="1" connectable="0" parent="11">
                    <mxGeometry x="0.843" relative="1" as="geometry">
                        <mxPoint x="-6" y="11" as="offset"/>
                    </mxGeometry>
                </mxCell>
                <mxCell id="2" value="Order" style="swimlane;fontStyle=0;childLayout=stackLayout;horizontal=1;startSize=26;fillColor=none;horizontalStack=0;resizeParent=1;resizeParentMax=0;resizeLast=0;collapsible=1;marginBottom=0;" vertex="1" parent="1">
                    <mxGeometry x="-731" y="418" width="140" height="182" as="geometry">
                        <mxRectangle x="478" y="212" width="95" height="26" as="alternateBounds"/>
                    </mxGeometry>
                </mxCell>
                <mxCell id="3" value="id" style="text;strokeColor=none;fillColor=none;align=left;verticalAlign=top;spacingLeft=4;spacingRight=4;overflow=hidden;rotatable=0;points=[[0,0.5],[1,0.5]];portConstraint=eastwest;" vertex="1" parent="2">
                    <mxGeometry y="26" width="140" height="26" as="geometry"/>
                </mxCell>
                <mxCell id="5" value="customerId" style="text;strokeColor=none;fillColor=none;align=left;verticalAlign=top;spacingLeft=4;spacingRight=4;overflow=hidden;rotatable=0;points=[[0,0.5],[1,0.5]];portConstraint=eastwest;" vertex="1" parent="2">
                    <mxGeometry y="52" width="140" height="26" as="geometry"/>
                </mxCell>
                <mxCell id="4" value="orderStatus" style="text;strokeColor=none;fillColor=none;align=left;verticalAlign=top;spacingLeft=4;spacingRight=4;overflow=hidden;rotatable=0;points=[[0,0.5],[1,0.5]];portConstraint=eastwest;" vertex="1" parent="2">
                    <mxGeometry y="78" width="140" height="26" as="geometry"/>
                </mxCell>
                <mxCell id="15" value="packageStatus" style="text;strokeColor=none;fillColor=none;align=left;verticalAlign=top;spacingLeft=4;spacingRight=4;overflow=hidden;rotatable=0;points=[[0,0.5],[1,0.5]];portConstraint=eastwest;" vertex="1" parent="2">
                    <mxGeometry y="104" width="140" height="26" as="geometry"/>
                </mxCell>
                <mxCell id="6" value="products" style="text;strokeColor=none;fillColor=none;align=left;verticalAlign=top;spacingLeft=4;spacingRight=4;overflow=hidden;rotatable=0;points=[[0,0.5],[1,0.5]];portConstraint=eastwest;" vertex="1" parent="2">
                    <mxGeometry y="130" width="140" height="26" as="geometry"/>
                </mxCell>
                <mxCell id="10" value="paymentId" style="text;strokeColor=none;fillColor=none;align=left;verticalAlign=top;spacingLeft=4;spacingRight=4;overflow=hidden;rotatable=0;points=[[0,0.5],[1,0.5]];portConstraint=eastwest;" vertex="1" parent="2">
                    <mxGeometry y="156" width="140" height="26" as="geometry"/>
                </mxCell>
            </root>
        </mxGraphModel>
    </diagram>
</mxfile>